<?xml version="1.0" encoding="utf-8"?>
<!-- Generator: Adobe Illustrator 22.0.1, SVG Export Plug-In . SVG Version: 6.00 Build 0)  -->
<svg version="1.1" id="Layer_1" xmlns="http://www.w3.org/2000/svg" xmlns:xlink="http://www.w3.org/1999/xlink" x="0px" y="0px"
	 viewBox="0 0 400 400" style="enable-background:new 0 0 400 400;" xml:space="preserve">
<style type="text/css">
	.st0{fill:#FFFFFF;stroke:#000000;stroke-width:12;stroke-miterlimit:10;}
	.st1{fill:none;stroke:#000000;stroke-width:12;stroke-miterlimit:10;}
	.st2{fill:none;stroke:#000000;stroke-width:12;stroke-linecap:round;stroke-miterlimit:10;}
</style>
<path class="st0" d="M51.7,168.1"/>
<path class="st1" d="M205.6,165.1l-22.9,73H73l-22.5-73.6c-0.5-1.7-1.5-3.3-2.7-4.5h0c-2-2-4.7-3.1-7.5-3.1h-1.7
	c-14.5,0-26.2-12.1-26.2-27v0c0-14.9,11.7-27,26.2-27h180.5c14.5,0,26.2,12.1,26.2,27v0c0,14.9-11.7,27-26.2,27h-2.5
	c-2.3,0-4.5,0.7-6.4,2l0,0C208,160.2,206.4,162.5,205.6,165.1z"/>
<line class="st2" x1="83.7" y1="98.5" x2="83.7" y2="27.5"/>
<line class="st2" x1="179.6" y1="98.5" x2="179.6" y2="27.5"/>
<path class="st2" d="M128.3,238c0,0-18.9,150.6,100.9,138.2C351.7,363.6,290,243.5,387.5,238"/>
</svg>
