<svg xmlns="http://www.w3.org/2000/svg" viewBox="0 0 50.01 50.004">
  <defs>
    <style>
      .cls-1 {
        fill: #f6bf5e;
      }
    </style>
  </defs>
  <path id="Create_ENquiry" data-name="Create ENquiry" class="cls-1" d="M64.453,705a4.4,4.4,0,0,1-4.4-4.395V659.393a4.4,4.4,0,0,1,4.4-4.395H86.43l11.713,11.72v6.346l-9.92,9.878a5.874,5.874,0,0,0-1.408,2.286l-1.4,4.189a3.662,3.662,0,0,0,3.471,4.826l.709-.039,4.659-1.555a5.807,5.807,0,0,0,2.277-1.4l1.61-1.57v10.933A4.433,4.433,0,0,1,93.708,705Zm1.465-16.31a1.464,1.464,0,0,0,1.465,1.465h14.6a1.465,1.465,0,1,0,0-2.93h-14.6A1.464,1.464,0,0,0,65.919,688.692Zm0-5.859a1.464,1.464,0,0,0,1.465,1.464h14.6a1.465,1.465,0,1,0,0-2.93h-14.6A1.464,1.464,0,0,0,65.919,682.833Zm0-5.86a1.464,1.464,0,0,0,1.465,1.464h14.6a1.465,1.465,0,1,0,0-2.93h-14.6A1.464,1.464,0,0,0,65.919,676.973Zm0-5.86a1.463,1.463,0,0,0,1.465,1.464H87.848a1.465,1.465,0,1,0,0-2.93H67.384A1.464,1.464,0,0,0,65.919,671.113Zm22.276,19.236,1.274-3.824L92.943,690l-3.821,1.276a.744.744,0,0,1-.236.039A.733.733,0,0,1,88.195,690.349Zm3-6.237,9.649-9.648,4.162,4.16-9.649,9.649Zm11.721-11.72,2.129-2.129a2.942,2.942,0,0,1,4.161,4.16l-2.129,2.129Z" transform="translate(-60.059 -654.998)"/>
</svg>
