<?xml version="1.0" encoding="utf-8"?>
<!-- Generator: Adobe Illustrator 22.0.1, SVG Export Plug-In . SVG Version: 6.00 Build 0)  -->
<svg version="1.1" id="Layer_1" xmlns="http://www.w3.org/2000/svg" xmlns:xlink="http://www.w3.org/1999/xlink" x="0px" y="0px"
	 viewBox="0 0 400 400" style="enable-background:new 0 0 400 400;" xml:space="preserve">
<style type="text/css">
	.st0{clip-path:url(#SVGID_2_);}
	.st1{fill:none;stroke:#000000;stroke-width:11;stroke-linecap:round;stroke-linejoin:round;stroke-miterlimit:10;}
	.st2{fill:#FFFFFF;stroke:#000000;stroke-width:11;stroke-linecap:round;stroke-linejoin:round;stroke-miterlimit:10;}
	.st3{display:none;}
	.st4{display:inline;fill:none;stroke:#000000;stroke-width:6;stroke-miterlimit:10;}
</style>
<g>
	<g>
		<g>
			<defs>
				<rect id="SVGID_1_" x="226.5" y="44.7" width="171.3" height="171.7"/>
			</defs>
			<clipPath id="SVGID_2_">
				<use xlink:href="#SVGID_1_"  style="overflow:visible;"/>
			</clipPath>
			<path class="st0" d="M389.1,112.3l-12-2c-1.3-4-2.9-7.9-4.8-11.7l7.1-9.9c3-4.2,2.5-10-1.1-13.6l-10.7-10.7c-2-2-4.7-3.1-7.5-3.1
				c-2.2,0-4.3,0.7-6.1,2l-10,7.1c-3.9-2-7.9-3.7-12.1-5l-2-11.9c-0.9-5.1-5.3-8.8-10.5-8.8h-15.1c-5.2,0-9.6,3.7-10.5,8.8
				l-2.1,12.2c-4,1.3-7.9,2.9-11.6,4.9l-9.8-7.1c-1.8-1.3-3.9-2-6.2-2c-2.8,0-5.5,1.1-7.5,3.1L246,75.2c-3.7,3.7-4.2,9.4-1.1,13.6
				l7.2,10.1c-2,3.8-3.5,7.7-4.8,11.7l-11.9,2c-5.1,0.9-8.8,5.3-8.8,10.5v15.1c0,5.2,3.7,9.6,8.8,10.5l12.2,2.1
				c1.3,4,2.9,7.9,4.9,11.6l-7.1,9.8c-3,4.2-2.5,10,1.1,13.6l10.7,10.7c2,2,4.7,3.1,7.5,3.1c2.2,0,4.3-0.7,6.1-2l10.1-7.2
				c3.6,1.9,7.4,3.4,11.3,4.7l2,12c0.9,5.1,5.3,8.8,10.5,8.8h15.1c5.2,0,9.6-3.7,10.5-8.8l2-12c4-1.3,7.9-2.9,11.7-4.8l9.9,7.1
				c1.8,1.3,3.9,2,6.2,2c2.8,0,5.5-1.1,7.5-3.1l10.7-10.7c3.7-3.7,4.2-9.4,1.1-13.6l-7.1-10c2-3.8,3.6-7.7,4.8-11.7l12-2
				c5.1-0.9,8.8-5.3,8.8-10.5v-15.1C397.9,117.5,394.2,113.1,389.1,112.3L389.1,112.3z M388.3,137.8c0,0.5-0.3,0.9-0.8,0.9l-15,2.5
				c-1.9,0.3-3.4,1.7-3.9,3.5c-1.4,5.3-3.4,10.3-6.2,15c-1,1.6-0.9,3.7,0.2,5.3l8.8,12.5c0.2,0.4,0.2,0.9-0.1,1.2l-10.7,10.7
				c-0.3,0.2-0.5,0.3-0.7,0.3c-0.2,0-0.4-0.1-0.5-0.2l-12.4-8.8c-1.5-1.1-3.6-1.2-5.3-0.2c-4.7,2.8-9.7,4.9-15,6.2
				c-1.9,0.5-3.3,2-3.5,3.9l-2.5,15c-0.1,0.5-0.5,0.8-0.9,0.8h-15.1c-0.5,0-0.9-0.3-0.9-0.8l-2.5-15c-0.3-1.9-1.7-3.4-3.5-3.9
				c-5.1-1.3-10.1-3.4-14.7-6c-0.8-0.4-1.6-0.6-2.4-0.6c-1,0-2,0.3-2.8,0.9l-12.5,8.9c-0.2,0.1-0.4,0.2-0.5,0.2
				c-0.1,0-0.4,0-0.7-0.3L253.4,179c-0.3-0.3-0.4-0.8-0.1-1.2l8.8-12.4c1.1-1.6,1.2-3.7,0.2-5.3c-2.8-4.7-4.9-9.7-6.3-15
				c-0.5-1.8-2-3.2-3.9-3.5l-15.1-2.6c-0.5-0.1-0.8-0.5-0.8-0.9v-15.1c0-0.5,0.3-0.9,0.8-0.9l14.9-2.5c1.9-0.3,3.4-1.7,3.9-3.6
				c1.3-5.3,3.4-10.3,6.1-15c1-1.6,0.9-3.7-0.3-5.2l-8.9-12.5c-0.3-0.4-0.2-0.9,0.1-1.2l10.7-10.7c0.3-0.3,0.5-0.3,0.7-0.3
				c0.2,0,0.4,0.1,0.5,0.2l12.3,8.8c1.6,1.1,3.7,1.2,5.3,0.2c4.7-2.8,9.7-4.9,15-6.3c1.8-0.5,3.2-2,3.5-3.9l2.6-15.1
				c0.1-0.5,0.5-0.8,0.9-0.8h15.1c0.5,0,0.9,0.3,0.9,0.8l2.5,14.9c0.3,1.9,1.7,3.4,3.6,3.9c5.4,1.4,10.6,3.5,15.4,6.3
				c1.6,1,3.7,0.9,5.3-0.2l12.3-8.9c0.2-0.1,0.4-0.2,0.5-0.2c0.1,0,0.4,0,0.7,0.3l10.7,10.7c0.3,0.3,0.4,0.8,0.1,1.2l-8.8,12.4
				c-1.1,1.5-1.2,3.6-0.2,5.3c2.8,4.7,4.9,9.7,6.2,15c0.5,1.9,2,3.3,3.9,3.5l15,2.5c0.5,0.1,0.8,0.5,0.8,0.9L388.3,137.8
				L388.3,137.8z M388.3,137.8"/>
		</g>
		<path d="M312.2,93.3c-20.4,0-37,16.6-37,37c0,20.4,16.6,37,37,37c20.4,0,37-16.6,37-37C349.2,109.8,332.6,93.3,312.2,93.3
			L312.2,93.3z M312.2,157.6c-15.1,0-27.3-12.2-27.3-27.3c0-15.1,12.2-27.3,27.3-27.3c15.1,0,27.3,12.2,27.3,27.3
			C339.5,145.3,327.3,157.6,312.2,157.6L312.2,157.6z M312.2,157.6"/>
	</g>
	<path class="st1" d="M304.7,357.3H66.5H17.7c-5.6,0-10.2-5.4-10.2-12V126.6c0-6.6,4.6-12,10.2-12h189.5c4.4,0,7.9,3.9,7.9,8.8v18.3
		c0,47.1,34.1,85.3,76.3,85.5l15.7,0.1c4.3,0,7.8,3.9,7.8,8.8v109.2C314.9,351.9,310.4,357.3,304.7,357.3z"/>
	<path class="st2" d="M215.1,156.1H7.5v-28.6c0-7.2,5.2-13,11.6-13h195.8L215.1,156.1z"/>
</g>
<g class="st3">
	<path class="st4" d="M256,330.6l-16-2.7c-2-0.3-3.6-1.8-4.1-3.8c-1.4-5.6-3.6-10.9-6.6-15.9c-1-1.7-1-4,0.2-5.6l9.4-13.2
		c0.3-0.4,0.2-1-0.1-1.3l-11.3-11.3c-0.3-0.3-0.6-0.3-0.7-0.3c-0.2,0-0.4,0.1-0.6,0.2l-13.1,9.4c-1.7,1.2-3.8,1.3-5.6,0.2
		c-5.1-3-10.6-5.2-16.3-6.7c-2-0.5-3.5-2.1-3.8-4.1l-2.7-15.9c-0.1-0.5-0.5-0.8-1-0.8h-16c-0.5,0-0.9,0.3-1,0.8l-2.7,16.1
		c-0.3,2-1.8,3.6-3.8,4.1c-5.6,1.4-10.9,3.7-15.9,6.7c-1.7,1-4,1-5.6-0.2l-13.1-9.4c-0.2-0.1-0.3-0.2-0.6-0.2c-0.2,0-0.5,0-0.7,0.3
		l-11.3,11.3c-0.3,0.3-0.4,0.9-0.1,1.3l9.5,13.3c1.2,1.6,1.3,3.8,0.3,5.6c-2.9,5-5.1,10.4-6.5,16c-0.5,2-2.1,3.5-4.1,3.8L96,330.9
		c-0.5,0.1-0.8,0.5-0.8,1v15.3h42.2c-0.5-2.5-0.8-5.1-0.8-7.7c0-21.7,17.6-39.3,39.3-39.3c21.7,0,39.3,17.6,39.3,39.3
		c0,2.6-0.3,5.2-0.8,7.7h42.3v-15.7C256.8,331.1,256.4,330.6,256,330.6z"/>
</g>
</svg>
