<svg xmlns="http://www.w3.org/2000/svg" viewBox="0 0 41.543 44.984">
  <defs>
    <style>
      .cls-1 {
        fill: #f6bf5e;
      }
    </style>
  </defs>
  <path id="Invoices" class="cls-1" d="M98.853,1270.71l-10.717-10.85a4.951,4.951,0,0,0-4.186-1.851H64.311a5.071,5.071,0,0,0-5.083,5.083v34.817a5.071,5.071,0,0,0,5.083,5.083H95.689a5.072,5.072,0,0,0,5.084-5.083v-22.8A5.037,5.037,0,0,0,98.853,1270.71Zm-10.732,6.912a.558.558,0,0,1-.579.579H84.5a6.763,6.763,0,0,1-2.334,4.231,9.17,9.17,0,0,1-4.992,1.989q3.021,3.219,8.3,9.694a.492.492,0,0,1,.071.615.523.523,0,0,1-.523.326H81.5a.533.533,0,0,1-.452-.217q-5.535-6.638-9.008-10.327a.54.54,0,0,1-.163-.4v-2.3a.586.586,0,0,1,.579-.579h2.026a8.164,8.164,0,0,0,3.843-.778,3.531,3.531,0,0,0,1.855-2.261H72.457a.557.557,0,0,1-.579-.579v-1.845a.558.558,0,0,1,.579-.579h7.47q-1.031-2.044-4.848-2.043H72.457a.587.587,0,0,1-.579-.579v-2.405a.557.557,0,0,1,.579-.579H87.506a.557.557,0,0,1,.579.579v1.845a.557.557,0,0,1-.579.579H83.292a6.253,6.253,0,0,1,1.158,2.6h3.093a.557.557,0,0,1,.579.579Z" transform="translate(-59.229 -1258.008)"/>
</svg>
