<svg xmlns="http://www.w3.org/2000/svg" viewBox="0 0 47.01 55">
  <defs>
    <style>
      .cls-1 {
        fill: #f6bf5e;
      }
    </style>
  </defs>
  <path id="Purchase_Order" data-name="Purchase Order" class="cls-1" d="M96.171,1054.25H64.82v-5.507H96.171Zm0-11H64.82v-5.507H96.171Zm0-11H64.82v-5.507H96.171ZM56.991,1068l3.915-4.122L64.82,1068l3.931-4.122L72.666,1068l3.915-4.122L80.5,1068l3.915-4.122L88.341,1068l3.915-4.122L96.171,1068l3.915-4.122L104,1068v-55l-3.915,4.122L96.171,1013l-3.915,4.122L88.341,1013l-3.931,4.122L80.5,1013l-3.915,4.122L72.666,1013l-3.915,4.122L64.82,1013l-3.915,4.122L56.991,1013Zm0,0" transform="translate(-56.99 -1013)"/>
</svg>
