<?xml version="1.0" encoding="utf-8"?>
<!-- Generator: Adobe Illustrator 22.0.1, SVG Export Plug-In . SVG Version: 6.00 Build 0)  -->
<svg version="1.1" id="Layer_1" xmlns="http://www.w3.org/2000/svg" xmlns:xlink="http://www.w3.org/1999/xlink" x="0px" y="0px"
	 viewBox="0 0 512 512" style="enable-background:new 0 0 512 512;" xml:space="preserve">
<style type="text/css">
	.st0{fill:none;stroke:#000000;stroke-width:15;stroke-miterlimit:10;}
</style>
<g>
	<g>
		<g>
			<path d="M472.4,0H39.6C17.7,0,0,17.7,0,39.6v432.9C0,494.3,17.7,512,39.6,512h432.9c21.8,0,39.6-17.7,39.6-39.6V39.6
				C512,17.7,494.3,0,472.4,0z M248.5,497H39.6C26,497,15,486,15,472.4V263.5h80.7c13,0,23.5-10.5,23.5-23.5v-16.1
				c0-9.6-3.9-18.3-10.7-23.9c-8.5-7-13.3-17.3-13.3-28.2c0-11.1,4.9-21.4,13.5-28.4c8.6-7,19.9-9.7,31-7.3
				c14.1,2.9,25.3,14.5,28,28.7c2.5,13.3-2.1,26.4-12.4,35c-7,5.9-11,14.6-11,23.9V240c0,13,10.6,23.5,23.5,23.5h80.7v80.7
				c0,4.7-3.8,8.5-8.5,8.5h-16.4c-4.8,0-9.3-2.1-12.4-5.7c-12.1-14.4-30.5-20.9-49.3-17.5c-20.1,3.7-36.4,19.7-40.6,39.6
				c-3.3,15.6,0.5,31.4,10.4,43.6c9.9,12.1,24.4,19.1,40.1,19.1c15.4,0,29.9-6.9,39.8-18.8c2.7-3.3,7.2-5.2,12.3-5.2H240
				c4.7,0,8.5,3.8,8.5,8.5L248.5,497L248.5,497z M497,248.5h-8.5c-4.1,0-7.5,3.4-7.5,7.5s3.4,7.5,7.5,7.5h8.5v208.9
				c0,13.5-11,24.6-24.6,24.6H263.5v-80.7c0-13-10.5-23.5-23.5-23.5h-16.1c-9.6,0-18.3,3.9-23.9,10.7c-7,8.5-17.3,13.3-28.2,13.3
				c-11.1,0-21.4-4.9-28.4-13.5c-7-8.6-9.7-19.9-7.3-31c2.9-14.1,14.5-25.3,28.7-28c13.3-2.5,26.4,2.1,35,12.4
				c5.9,7,14.6,11,23.8,11H240c13,0,23.5-10.6,23.5-23.5v-80.7h80.7c4.7,0,8.5,3.8,8.5,8.5v16.3c0,4.9-2.1,9.4-5.7,12.4
				c-14.4,12.1-20.9,30.6-17.5,49.3c3.7,20.1,19.7,36.4,39.6,40.6c3.7,0.8,7.3,1.1,11,1.1c11.8,0,23.3-4,32.6-11.5
				c12.1-9.9,19.1-24.4,19.1-40.1c0-15.4-6.9-29.9-18.8-39.8c-3.3-2.7-5.2-7.3-5.2-12.4v-16c0-4.7,3.8-8.5,8.5-8.5h40.1
				c4.1,0,7.5-3.4,7.5-7.5s-3.4-7.5-7.5-7.5h-40.1c-13,0-23.5,10.6-23.5,23.5v16c0,9.6,3.9,18.3,10.7,23.9
				c8.5,7,13.3,17.3,13.3,28.2c0,11.1-4.9,21.4-13.5,28.4c-8.6,7-19.9,9.7-31,7.3c-14.1-2.9-25.3-14.5-28-28.7
				c-2.5-13.3,2.1-26.4,12.4-35c7-5.9,11-14.6,11-23.9V272c0-13-10.6-23.5-23.5-23.5h-80.7v-80.7c0-4.7,3.8-8.5,8.5-8.5h16.3
				c4.9,0,9.4,2.1,12.4,5.7c12.1,14.4,30.5,20.9,49.3,17.5c20.1-3.7,36.4-19.7,40.6-39.6c3.3-15.6-0.5-31.4-10.4-43.6
				c-9.9-12.1-24.4-19.1-40.1-19.1c-15.4,0-29.9,6.9-39.8,18.8c-2.7,3.3-7.2,5.2-12.3,5.2H272c-4.7,0-8.5-3.8-8.5-8.5V55.6
				c0-4.1-3.4-7.5-7.5-7.5c-4.1,0-7.5,3.4-7.5,7.5v40.1c0,13,10.5,23.5,23.5,23.5h16.1c9.6,0,18.3-3.9,23.9-10.7
				c7-8.5,17.3-13.3,28.2-13.3c11.1,0,21.4,4.9,28.4,13.5c7,8.6,9.7,19.9,7.3,31c-2.9,14.1-14.5,25.3-28.7,28
				c-13.3,2.5-26.4-2.1-35-12.4c-5.9-7-14.6-11-23.9-11H272c-13,0-23.5,10.6-23.5,23.5v80.7h-80.7c-4.7,0-8.5-3.8-8.5-8.5v-16.3
				c0-4.9,2.1-9.4,5.7-12.4c14.4-12.1,20.9-30.6,17.5-49.3c-3.7-20.1-19.7-36.4-39.6-40.6c-15.6-3.2-31.4,0.5-43.6,10.4
				c-12.1,9.9-19.1,24.4-19.1,40.1c0,15.4,6.9,29.9,18.8,39.8c3.3,2.7,5.2,7.2,5.2,12.3V240c0,4.7-3.8,8.5-8.5,8.5H15V39.6
				C15,26,26,15,39.6,15h208.9v8.5c0,4.1,3.4,7.5,7.5,7.5c4.1,0,7.5-3.4,7.5-7.5V15h208.9C486,15,497,26,497,39.6V248.5z"/>
		</g>
	</g>
	<line class="st0" x1="256" y1="22.5" x2="256" y2="69"/>
	<line class="st0" x1="499.3" y1="256" x2="452.8" y2="256"/>
</g>
</svg>
