<svg xmlns="http://www.w3.org/2000/svg" viewBox="0 0 30.141 28">
    <defs>
        <style>
            .cls-1{fill:#a3a7ae}
        </style>
    </defs>
    <path id="Search_icon" d="M2719.485 299a2.575 2.575 0 0 1-3.634.22l-9.635-8.522a2.563 2.563 0 0 1-.837-2.32 9.354 9.354 0 1 1 1.833-2.077 2.573 2.573 0 0 1 2.416.547l9.638 8.522a2.569 2.569 0 0 1 .219 3.63zm-13.619-18.179a6.471 6.471 0 0 0-2.187-4.486 6.523 6.523 0 1 0 .561 9.206 6.474 6.474 0 0 0 1.627-4.718z" class="cls-1" transform="translate(-2689.992 -271.869)"/>
</svg>
