<svg xmlns="http://www.w3.org/2000/svg" viewBox="0 0 40.42 50.02">
  <defs>
    <style>
      .cls-1 {
        fill: #f6bf5e;
      }
    </style>
  </defs>
  <path id="View_Enquiry" data-name="View Enquiry" class="cls-1" d="M65.088,825.009a4.8,4.8,0,0,1-4.8-4.8V779.789a4.8,4.8,0,0,1,4.8-4.8H86.622l14.088,14.088v31.133a4.8,4.8,0,0,1-4.8,4.8ZM63.5,800.934c0,1.3,5.847,9.521,17,9.521s17-8.218,17-9.521-5.848-9.522-17-9.522S63.5,799.631,63.5,800.934Zm9.445,0a7.56,7.56,0,1,1,7.556,7.324A7.444,7.444,0,0,1,72.943,800.934Zm3.779,0a3.78,3.78,0,0,0,7.555,0c0-.492-.9-.282-1.826-.071-.824.187-1.676.373-1.952.071-.691-.76,1.128-3.662,0-3.662A3.721,3.721,0,0,0,76.722,800.934Z" transform="translate(-60.291 -774.99)"/>
</svg>
